<mxfile host="Electron" agent="Mozilla/5.0 (Windows NT 10.0; Win64; x64) AppleWebKit/537.36 (KHTML, like Gecko) draw.io/24.7.8 Chrome/128.0.6613.36 Electron/32.0.1 Safari/537.36" version="24.7.8">
  <diagram name="ページ1" id="F2J8mC3DBKsExerSyWHM">
    <mxGraphModel dx="2140" dy="2536" grid="1" gridSize="10" guides="1" tooltips="1" connect="1" arrows="1" fold="1" page="0" pageScale="1" pageWidth="827" pageHeight="1169" math="0" shadow="0">
      <root>
        <mxCell id="0" />
        <mxCell id="1" parent="0" />
        <mxCell id="cuASzoLC5OeUIjtj3deS-9" value="a-z A-Z _" style="rounded=0;orthogonalLoop=1;jettySize=auto;html=1;" parent="1" source="cuASzoLC5OeUIjtj3deS-1" target="cuASzoLC5OeUIjtj3deS-8" edge="1">
          <mxGeometry relative="1" as="geometry" />
        </mxCell>
        <mxCell id="voOlMRcv-cYc8bphgMnK-7" value="+-*/%&amp;amp;|!&amp;lt;&amp;gt;=&lt;div&gt;next&lt;/div&gt;&lt;div&gt;oprChar&lt;br&gt;&lt;/div&gt;" style="edgeStyle=orthogonalEdgeStyle;rounded=0;orthogonalLoop=1;jettySize=auto;html=1;" parent="1" source="cuASzoLC5OeUIjtj3deS-1" target="voOlMRcv-cYc8bphgMnK-6" edge="1">
          <mxGeometry relative="1" as="geometry">
            <Array as="points">
              <mxPoint x="504" y="310" />
              <mxPoint x="1070" y="310" />
            </Array>
          </mxGeometry>
        </mxCell>
        <mxCell id="voOlMRcv-cYc8bphgMnK-57" value="(&lt;br&gt;next" style="edgeStyle=orthogonalEdgeStyle;rounded=0;orthogonalLoop=1;jettySize=auto;html=1;" parent="1" source="cuASzoLC5OeUIjtj3deS-1" target="voOlMRcv-cYc8bphgMnK-21" edge="1">
          <mxGeometry x="-0.6564" relative="1" as="geometry">
            <Array as="points">
              <mxPoint x="504" y="270" />
              <mxPoint x="1910" y="270" />
            </Array>
            <mxPoint as="offset" />
          </mxGeometry>
        </mxCell>
        <mxCell id="anXXtwwHs9E_ZAVNs1WR-14" value="&quot;&lt;div&gt;next&lt;/div&gt;" style="edgeStyle=orthogonalEdgeStyle;rounded=0;orthogonalLoop=1;jettySize=auto;html=1;" parent="1" source="cuASzoLC5OeUIjtj3deS-1" target="anXXtwwHs9E_ZAVNs1WR-16" edge="1">
          <mxGeometry x="-0.8172" relative="1" as="geometry">
            <Array as="points">
              <mxPoint x="504" y="240" />
              <mxPoint x="2620" y="240" />
            </Array>
            <mxPoint as="offset" />
          </mxGeometry>
        </mxCell>
        <mxCell id="anXXtwwHs9E_ZAVNs1WR-19" value="0-9&lt;div&gt;next&lt;/div&gt;&lt;div&gt;dataBuffer&lt;/div&gt;" style="edgeStyle=orthogonalEdgeStyle;rounded=0;orthogonalLoop=1;jettySize=auto;html=1;" parent="1" source="cuASzoLC5OeUIjtj3deS-1" target="anXXtwwHs9E_ZAVNs1WR-18" edge="1">
          <mxGeometry x="-0.8365" relative="1" as="geometry">
            <Array as="points">
              <mxPoint x="504" y="200" />
              <mxPoint x="2840" y="200" />
            </Array>
            <mxPoint as="offset" />
          </mxGeometry>
        </mxCell>
        <mxCell id="Lfi75M68xP1nV6T8NC7T-2" value="other" style="rounded=0;orthogonalLoop=1;jettySize=auto;html=1;" parent="1" source="cuASzoLC5OeUIjtj3deS-1" target="Lfi75M68xP1nV6T8NC7T-1" edge="1">
          <mxGeometry relative="1" as="geometry" />
        </mxCell>
        <mxCell id="O44c4YSMCurlD6F-a47z-2" value="[&lt;br&gt;next" style="edgeStyle=orthogonalEdgeStyle;rounded=0;orthogonalLoop=1;jettySize=auto;html=1;" parent="1" source="cuASzoLC5OeUIjtj3deS-1" target="O44c4YSMCurlD6F-a47z-8" edge="1">
          <mxGeometry relative="1" as="geometry">
            <mxPoint x="-180" y="310" as="targetPoint" />
            <Array as="points">
              <mxPoint x="504" y="250" />
              <mxPoint x="-446" y="250" />
            </Array>
          </mxGeometry>
        </mxCell>
        <mxCell id="cuASzoLC5OeUIjtj3deS-1" value="common0" style="ellipse;whiteSpace=wrap;html=1;aspect=fixed;" parent="1" vertex="1">
          <mxGeometry x="464" y="60" width="80" height="80" as="geometry" />
        </mxCell>
        <mxCell id="voOlMRcv-cYc8bphgMnK-17" style="rounded=0;orthogonalLoop=1;jettySize=auto;html=1;exitX=0.883;exitY=0.772;exitDx=0;exitDy=0;exitPerimeter=0;" parent="1" source="cuASzoLC5OeUIjtj3deS-2" target="cuASzoLC5OeUIjtj3deS-1" edge="1">
          <mxGeometry relative="1" as="geometry" />
        </mxCell>
        <mxCell id="cuASzoLC5OeUIjtj3deS-2" value="" style="verticalLabelPosition=bottom;verticalAlign=top;html=1;shape=mxgraph.basic.donut;dx=10;" parent="1" vertex="1">
          <mxGeometry x="340" y="-30" width="60" height="60" as="geometry" />
        </mxCell>
        <mxCell id="cuASzoLC5OeUIjtj3deS-4" value="white space&lt;div&gt;next&lt;br&gt;&lt;/div&gt;" style="rounded=0;orthogonalLoop=1;jettySize=auto;html=1;edgeStyle=orthogonalEdgeStyle;curved=1;" parent="1" source="cuASzoLC5OeUIjtj3deS-1" target="cuASzoLC5OeUIjtj3deS-1" edge="1">
          <mxGeometry relative="1" as="geometry">
            <Array as="points">
              <mxPoint x="530" y="-10" />
            </Array>
          </mxGeometry>
        </mxCell>
        <mxCell id="cuASzoLC5OeUIjtj3deS-12" value="(&lt;br&gt;next" style="rounded=0;orthogonalLoop=1;jettySize=auto;html=1;entryX=0;entryY=0;entryDx=0;entryDy=0;" parent="1" source="cuASzoLC5OeUIjtj3deS-8" target="cuASzoLC5OeUIjtj3deS-11" edge="1">
          <mxGeometry relative="1" as="geometry" />
        </mxCell>
        <mxCell id="voOlMRcv-cYc8bphgMnK-2" value="other" style="edgeStyle=orthogonalEdgeStyle;rounded=0;orthogonalLoop=1;jettySize=auto;html=1;curved=1;" parent="1" source="cuASzoLC5OeUIjtj3deS-8" target="voOlMRcv-cYc8bphgMnK-3" edge="1">
          <mxGeometry relative="1" as="geometry">
            <Array as="points">
              <mxPoint x="390" y="450" />
              <mxPoint x="50" y="450" />
            </Array>
          </mxGeometry>
        </mxCell>
        <mxCell id="cuASzoLC5OeUIjtj3deS-8" value="varFunc0" style="ellipse;whiteSpace=wrap;html=1;aspect=fixed;" parent="1" vertex="1">
          <mxGeometry x="350" y="290" width="80" height="80" as="geometry" />
        </mxCell>
        <mxCell id="cuASzoLC5OeUIjtj3deS-10" value="a-z A-Z 0-9 _&lt;br&gt;next&lt;br&gt;nameBuffer" style="edgeStyle=orthogonalEdgeStyle;rounded=0;orthogonalLoop=1;jettySize=auto;html=1;curved=1;" parent="1" source="cuASzoLC5OeUIjtj3deS-8" target="cuASzoLC5OeUIjtj3deS-8" edge="1">
          <mxGeometry relative="1" as="geometry">
            <Array as="points">
              <mxPoint x="280" y="360" />
            </Array>
          </mxGeometry>
        </mxCell>
        <mxCell id="cuASzoLC5OeUIjtj3deS-21" value="end" style="rounded=0;orthogonalLoop=1;jettySize=auto;html=1;edgeStyle=orthogonalEdgeStyle;curved=1;" parent="1" source="cuASzoLC5OeUIjtj3deS-11" target="cuASzoLC5OeUIjtj3deS-18" edge="1">
          <mxGeometry relative="1" as="geometry">
            <Array as="points">
              <mxPoint x="290" y="600" />
              <mxPoint x="290" y="600" />
            </Array>
          </mxGeometry>
        </mxCell>
        <mxCell id="cuASzoLC5OeUIjtj3deS-60" value=",&lt;br&gt;next" style="rounded=0;orthogonalLoop=1;jettySize=auto;html=1;exitX=0.713;exitY=0.938;exitDx=0;exitDy=0;exitPerimeter=0;" parent="1" source="cuASzoLC5OeUIjtj3deS-11" target="cuASzoLC5OeUIjtj3deS-61" edge="1">
          <mxGeometry relative="1" as="geometry">
            <mxPoint x="890" y="670" as="targetPoint" />
          </mxGeometry>
        </mxCell>
        <mxCell id="cuASzoLC5OeUIjtj3deS-65" value=")&lt;div&gt;next&lt;/div&gt;" style="rounded=0;orthogonalLoop=1;jettySize=auto;html=1;entryX=0;entryY=0.5;entryDx=0;entryDy=0;exitX=0.75;exitY=0.075;exitDx=0;exitDy=0;exitPerimeter=0;" parent="1" source="cuASzoLC5OeUIjtj3deS-11" target="cuASzoLC5OeUIjtj3deS-64" edge="1">
          <mxGeometry x="0.0303" y="-1" relative="1" as="geometry">
            <mxPoint as="offset" />
          </mxGeometry>
        </mxCell>
        <mxCell id="W6E2tJbJN2goG2bSEkht-63" value="&quot;" style="edgeStyle=orthogonalEdgeStyle;rounded=0;orthogonalLoop=1;jettySize=auto;html=1;" parent="1" source="cuASzoLC5OeUIjtj3deS-11" target="W6E2tJbJN2goG2bSEkht-62" edge="1">
          <mxGeometry relative="1" as="geometry" />
        </mxCell>
        <mxCell id="cuASzoLC5OeUIjtj3deS-11" value="func0" style="ellipse;whiteSpace=wrap;html=1;aspect=fixed;" parent="1" vertex="1">
          <mxGeometry x="394" y="580" width="80" height="80" as="geometry" />
        </mxCell>
        <mxCell id="cuASzoLC5OeUIjtj3deS-13" value="other&lt;br&gt;next&lt;br&gt;dataBuffer" style="edgeStyle=orthogonalEdgeStyle;rounded=0;orthogonalLoop=1;jettySize=auto;html=1;curved=1;" parent="1" source="cuASzoLC5OeUIjtj3deS-11" target="cuASzoLC5OeUIjtj3deS-11" edge="1">
          <mxGeometry relative="1" as="geometry">
            <Array as="points">
              <mxPoint x="540" y="650" />
            </Array>
          </mxGeometry>
        </mxCell>
        <mxCell id="cuASzoLC5OeUIjtj3deS-18" value="error" style="ellipse;whiteSpace=wrap;html=1;aspect=fixed;" parent="1" vertex="1">
          <mxGeometry x="70" y="550" width="80" height="80" as="geometry" />
        </mxCell>
        <mxCell id="cuASzoLC5OeUIjtj3deS-28" value="({[&lt;div&gt;next&lt;br&gt;startChar&lt;/div&gt;" style="rounded=0;orthogonalLoop=1;jettySize=auto;html=1;exitX=0.5;exitY=1;exitDx=0;exitDy=0;" parent="1" source="cuASzoLC5OeUIjtj3deS-11" target="W6E2tJbJN2goG2bSEkht-61" edge="1">
          <mxGeometry relative="1" as="geometry">
            <mxPoint x="460" y="730" as="targetPoint" />
          </mxGeometry>
        </mxCell>
        <mxCell id="cuASzoLC5OeUIjtj3deS-62" style="rounded=0;orthogonalLoop=1;jettySize=auto;html=1;entryX=0.625;entryY=0.975;entryDx=0;entryDy=0;entryPerimeter=0;exitX=0;exitY=0;exitDx=0;exitDy=0;" parent="1" source="cuASzoLC5OeUIjtj3deS-61" target="cuASzoLC5OeUIjtj3deS-11" edge="1">
          <mxGeometry relative="1" as="geometry">
            <mxPoint x="450" y="660" as="targetPoint" />
          </mxGeometry>
        </mxCell>
        <mxCell id="cuASzoLC5OeUIjtj3deS-61" value="dataList push dataBuffer&lt;br&gt;clear dataBuffer" style="rounded=1;whiteSpace=wrap;html=1;" parent="1" vertex="1">
          <mxGeometry x="510" y="700" width="210" height="60" as="geometry" />
        </mxCell>
        <mxCell id="cuASzoLC5OeUIjtj3deS-66" style="rounded=0;orthogonalLoop=1;jettySize=auto;html=1;edgeStyle=orthogonalEdgeStyle;exitX=0;exitY=0.25;exitDx=0;exitDy=0;entryX=0.338;entryY=0.963;entryDx=0;entryDy=0;entryPerimeter=0;" parent="1" source="cuASzoLC5OeUIjtj3deS-64" target="cuASzoLC5OeUIjtj3deS-1" edge="1">
          <mxGeometry relative="1" as="geometry" />
        </mxCell>
        <mxCell id="cuASzoLC5OeUIjtj3deS-64" value="dataList push dataBuffer&lt;br&gt;clear dataBuffer&lt;br&gt;analizedData = expessionAnalizer (each dataList)&lt;div&gt;returnValue = run function(nameBuffer analizedData)&lt;/div&gt;&lt;div&gt;expressionList push returnValue&lt;/div&gt;" style="rounded=1;whiteSpace=wrap;html=1;" parent="1" vertex="1">
          <mxGeometry x="620" y="460" width="300" height="70" as="geometry" />
        </mxCell>
        <mxCell id="voOlMRcv-cYc8bphgMnK-5" style="edgeStyle=orthogonalEdgeStyle;rounded=0;orthogonalLoop=1;jettySize=auto;html=1;" parent="1" source="voOlMRcv-cYc8bphgMnK-3" target="cuASzoLC5OeUIjtj3deS-1" edge="1">
          <mxGeometry relative="1" as="geometry">
            <Array as="points">
              <mxPoint x="60" y="100" />
            </Array>
          </mxGeometry>
        </mxCell>
        <mxCell id="voOlMRcv-cYc8bphgMnK-3" value="expressionList push nameBuffer" style="rounded=1;whiteSpace=wrap;html=1;" parent="1" vertex="1">
          <mxGeometry x="-30" y="330" width="240" height="40" as="geometry" />
        </mxCell>
        <mxCell id="voOlMRcv-cYc8bphgMnK-11" value="+-&amp;amp;|=&lt;br&gt;next&lt;br&gt;nextChar" style="edgeStyle=orthogonalEdgeStyle;rounded=0;orthogonalLoop=1;jettySize=auto;html=1;" parent="1" source="voOlMRcv-cYc8bphgMnK-6" target="voOlMRcv-cYc8bphgMnK-10" edge="1">
          <mxGeometry relative="1" as="geometry" />
        </mxCell>
        <mxCell id="Lfi75M68xP1nV6T8NC7T-4" value="other" style="edgeStyle=orthogonalEdgeStyle;rounded=0;orthogonalLoop=1;jettySize=auto;html=1;entryX=0.123;entryY=0.125;entryDx=0;entryDy=0;entryPerimeter=0;exitX=1;exitY=0.5;exitDx=0;exitDy=0;" parent="1" source="voOlMRcv-cYc8bphgMnK-6" target="voOlMRcv-cYc8bphgMnK-12" edge="1">
          <mxGeometry x="-0.6439" relative="1" as="geometry">
            <Array as="points">
              <mxPoint x="1312" y="390" />
            </Array>
            <mxPoint as="offset" />
          </mxGeometry>
        </mxCell>
        <mxCell id="voOlMRcv-cYc8bphgMnK-6" value="opr0" style="ellipse;whiteSpace=wrap;html=1;aspect=fixed;" parent="1" vertex="1">
          <mxGeometry x="1030" y="350" width="80" height="80" as="geometry" />
        </mxCell>
        <mxCell id="voOlMRcv-cYc8bphgMnK-14" value="" style="edgeStyle=orthogonalEdgeStyle;rounded=0;orthogonalLoop=1;jettySize=auto;html=1;" parent="1" source="voOlMRcv-cYc8bphgMnK-10" target="voOlMRcv-cYc8bphgMnK-12" edge="1">
          <mxGeometry relative="1" as="geometry" />
        </mxCell>
        <mxCell id="voOlMRcv-cYc8bphgMnK-10" value="opr1" style="ellipse;whiteSpace=wrap;html=1;aspect=fixed;" parent="1" vertex="1">
          <mxGeometry x="1030" y="500" width="80" height="80" as="geometry" />
        </mxCell>
        <mxCell id="voOlMRcv-cYc8bphgMnK-16" style="edgeStyle=orthogonalEdgeStyle;rounded=0;orthogonalLoop=1;jettySize=auto;html=1;entryX=1;entryY=0.5;entryDx=0;entryDy=0;" parent="1" source="voOlMRcv-cYc8bphgMnK-12" target="cuASzoLC5OeUIjtj3deS-1" edge="1">
          <mxGeometry relative="1" as="geometry">
            <Array as="points">
              <mxPoint x="1400" y="100" />
            </Array>
          </mxGeometry>
        </mxCell>
        <mxCell id="voOlMRcv-cYc8bphgMnK-12" value="expressionList push oprChar+nextChar" style="rounded=1;whiteSpace=wrap;html=1;" parent="1" vertex="1">
          <mxGeometry x="1280" y="520" width="260" height="40" as="geometry" />
        </mxCell>
        <mxCell id="voOlMRcv-cYc8bphgMnK-18" value="&quot;" style="rounded=0;orthogonalLoop=1;jettySize=auto;html=1;" parent="1" target="ileGeyp6K2Hb5fsWJhOJ-1" edge="1">
          <mxGeometry relative="1" as="geometry">
            <mxPoint x="1916.2122727099554" y="447.7716898562787" as="sourcePoint" />
            <mxPoint x="1859.7847584788901" y="502.2252330466847" as="targetPoint" />
          </mxGeometry>
        </mxCell>
        <mxCell id="voOlMRcv-cYc8bphgMnK-19" value="end" style="rounded=0;orthogonalLoop=1;jettySize=auto;html=1;exitX=-0.012;exitY=0.325;exitDx=0;exitDy=0;exitPerimeter=0;" parent="1" source="voOlMRcv-cYc8bphgMnK-21" target="voOlMRcv-cYc8bphgMnK-56" edge="1">
          <mxGeometry relative="1" as="geometry">
            <mxPoint x="1904.0757037707635" y="406.9202092370605" as="sourcePoint" />
            <mxPoint x="1680" y="393.08370370370346" as="targetPoint" />
          </mxGeometry>
        </mxCell>
        <mxCell id="voOlMRcv-cYc8bphgMnK-60" value=")&lt;br&gt;next" style="edgeStyle=orthogonalEdgeStyle;rounded=0;orthogonalLoop=1;jettySize=auto;html=1;" parent="1" source="voOlMRcv-cYc8bphgMnK-21" target="voOlMRcv-cYc8bphgMnK-58" edge="1">
          <mxGeometry relative="1" as="geometry">
            <Array as="points">
              <mxPoint x="1970" y="470" />
            </Array>
          </mxGeometry>
        </mxCell>
        <mxCell id="voOlMRcv-cYc8bphgMnK-21" value="brac0" style="ellipse;whiteSpace=wrap;html=1;aspect=fixed;" parent="1" vertex="1">
          <mxGeometry x="1904" y="380" width="80" height="80" as="geometry" />
        </mxCell>
        <mxCell id="voOlMRcv-cYc8bphgMnK-22" value="other&lt;br&gt;next&lt;br&gt;expressionBuffer" style="edgeStyle=orthogonalEdgeStyle;rounded=0;orthogonalLoop=1;jettySize=auto;html=1;curved=1;" parent="1" source="voOlMRcv-cYc8bphgMnK-21" target="voOlMRcv-cYc8bphgMnK-21" edge="1">
          <mxGeometry relative="1" as="geometry">
            <Array as="points">
              <mxPoint x="2050" y="450" />
            </Array>
          </mxGeometry>
        </mxCell>
        <mxCell id="voOlMRcv-cYc8bphgMnK-33" value="({[&lt;div&gt;next&lt;br&gt;startChar&lt;/div&gt;" style="rounded=0;orthogonalLoop=1;jettySize=auto;html=1;exitX=0.5;exitY=1;exitDx=0;exitDy=0;" parent="1" source="voOlMRcv-cYc8bphgMnK-21" target="ileGeyp6K2Hb5fsWJhOJ-3" edge="1">
          <mxGeometry relative="1" as="geometry">
            <mxPoint x="1970" y="530" as="targetPoint" />
          </mxGeometry>
        </mxCell>
        <mxCell id="voOlMRcv-cYc8bphgMnK-56" value="to error" style="rounded=1;whiteSpace=wrap;html=1;" parent="1" vertex="1">
          <mxGeometry x="1620" y="390" width="120" height="40" as="geometry" />
        </mxCell>
        <mxCell id="voOlMRcv-cYc8bphgMnK-62" style="edgeStyle=orthogonalEdgeStyle;rounded=0;orthogonalLoop=1;jettySize=auto;html=1;entryX=1;entryY=0.5;entryDx=0;entryDy=0;" parent="1" source="voOlMRcv-cYc8bphgMnK-58" target="cuASzoLC5OeUIjtj3deS-1" edge="1">
          <mxGeometry relative="1" as="geometry">
            <Array as="points">
              <mxPoint x="2270" y="100" />
            </Array>
          </mxGeometry>
        </mxCell>
        <mxCell id="voOlMRcv-cYc8bphgMnK-58" value="analized = expressionAnilizer(expressionBuffer)&lt;div&gt;runValue = run analized&lt;/div&gt;&lt;div&gt;expressionList push runValue&lt;/div&gt;" style="rounded=1;whiteSpace=wrap;html=1;" parent="1" vertex="1">
          <mxGeometry x="2160" y="420" width="280" height="80" as="geometry" />
        </mxCell>
        <mxCell id="anXXtwwHs9E_ZAVNs1WR-15" style="edgeStyle=orthogonalEdgeStyle;rounded=0;orthogonalLoop=1;jettySize=auto;html=1;" parent="1" source="anXXtwwHs9E_ZAVNs1WR-16" target="cuASzoLC5OeUIjtj3deS-1" edge="1">
          <mxGeometry relative="1" as="geometry">
            <Array as="points">
              <mxPoint x="2710" y="100" />
            </Array>
          </mxGeometry>
        </mxCell>
        <mxCell id="anXXtwwHs9E_ZAVNs1WR-16" value="expressionList push strEval()" style="rounded=1;whiteSpace=wrap;html=1;" parent="1" vertex="1">
          <mxGeometry x="2500" y="340" width="240" height="40" as="geometry" />
        </mxCell>
        <mxCell id="anXXtwwHs9E_ZAVNs1WR-22" value=".&lt;div&gt;next&lt;br&gt;dataBuffer&lt;/div&gt;" style="edgeStyle=orthogonalEdgeStyle;rounded=0;orthogonalLoop=1;jettySize=auto;html=1;" parent="1" source="anXXtwwHs9E_ZAVNs1WR-18" target="anXXtwwHs9E_ZAVNs1WR-21" edge="1">
          <mxGeometry relative="1" as="geometry" />
        </mxCell>
        <mxCell id="anXXtwwHs9E_ZAVNs1WR-30" value="other" style="edgeStyle=orthogonalEdgeStyle;rounded=0;orthogonalLoop=1;jettySize=auto;html=1;" parent="1" source="anXXtwwHs9E_ZAVNs1WR-18" target="anXXtwwHs9E_ZAVNs1WR-29" edge="1">
          <mxGeometry relative="1" as="geometry">
            <Array as="points">
              <mxPoint x="2860" y="295" />
              <mxPoint x="2990" y="295" />
            </Array>
          </mxGeometry>
        </mxCell>
        <mxCell id="anXXtwwHs9E_ZAVNs1WR-18" value="num0" style="ellipse;whiteSpace=wrap;html=1;aspect=fixed;" parent="1" vertex="1">
          <mxGeometry x="2800" y="330" width="80" height="80" as="geometry" />
        </mxCell>
        <mxCell id="anXXtwwHs9E_ZAVNs1WR-27" value="other" style="edgeStyle=orthogonalEdgeStyle;rounded=0;orthogonalLoop=1;jettySize=auto;html=1;" parent="1" source="anXXtwwHs9E_ZAVNs1WR-21" target="anXXtwwHs9E_ZAVNs1WR-29" edge="1">
          <mxGeometry relative="1" as="geometry">
            <mxPoint x="2710" y="480" as="targetPoint" />
            <Array as="points">
              <mxPoint x="2840" y="630" />
              <mxPoint x="2990" y="630" />
            </Array>
          </mxGeometry>
        </mxCell>
        <mxCell id="anXXtwwHs9E_ZAVNs1WR-21" value="float0" style="ellipse;whiteSpace=wrap;html=1;aspect=fixed;" parent="1" vertex="1">
          <mxGeometry x="2800" y="510" width="80" height="80" as="geometry" />
        </mxCell>
        <mxCell id="anXXtwwHs9E_ZAVNs1WR-23" value="0-9&lt;div&gt;next&lt;br&gt;dataBuffer&lt;/div&gt;" style="edgeStyle=orthogonalEdgeStyle;rounded=0;orthogonalLoop=1;jettySize=auto;html=1;" parent="1" source="anXXtwwHs9E_ZAVNs1WR-21" target="anXXtwwHs9E_ZAVNs1WR-21" edge="1">
          <mxGeometry relative="1" as="geometry">
            <Array as="points">
              <mxPoint x="2930" y="580" />
            </Array>
          </mxGeometry>
        </mxCell>
        <mxCell id="anXXtwwHs9E_ZAVNs1WR-31" style="edgeStyle=orthogonalEdgeStyle;rounded=0;orthogonalLoop=1;jettySize=auto;html=1;" parent="1" source="anXXtwwHs9E_ZAVNs1WR-29" target="cuASzoLC5OeUIjtj3deS-1" edge="1">
          <mxGeometry relative="1" as="geometry">
            <Array as="points">
              <mxPoint x="2990" y="100" />
            </Array>
          </mxGeometry>
        </mxCell>
        <mxCell id="anXXtwwHs9E_ZAVNs1WR-29" value="expressionList push dataBuffer" style="rounded=1;whiteSpace=wrap;html=1;" parent="1" vertex="1">
          <mxGeometry x="2870" y="230" width="240" height="40" as="geometry" />
        </mxCell>
        <mxCell id="Lfi75M68xP1nV6T8NC7T-1" value="to error" style="rounded=1;whiteSpace=wrap;html=1;" parent="1" vertex="1">
          <mxGeometry x="270" y="150" width="120" height="40" as="geometry" />
        </mxCell>
        <mxCell id="Lfi75M68xP1nV6T8NC7T-6" value="0-9&lt;br&gt;next&lt;br&gt;dataBuffer" style="edgeStyle=orthogonalEdgeStyle;rounded=0;orthogonalLoop=1;jettySize=auto;html=1;" parent="1" source="anXXtwwHs9E_ZAVNs1WR-18" target="anXXtwwHs9E_ZAVNs1WR-18" edge="1">
          <mxGeometry relative="1" as="geometry">
            <Array as="points">
              <mxPoint x="2940" y="400" />
            </Array>
          </mxGeometry>
        </mxCell>
        <mxCell id="O44c4YSMCurlD6F-a47z-6" value="end" style="rounded=0;orthogonalLoop=1;jettySize=auto;html=1;edgeStyle=orthogonalEdgeStyle;curved=1;" parent="1" source="O44c4YSMCurlD6F-a47z-8" target="O44c4YSMCurlD6F-a47z-14" edge="1">
          <mxGeometry relative="1" as="geometry">
            <Array as="points">
              <mxPoint x="-590" y="450" />
              <mxPoint x="-590" y="450" />
            </Array>
          </mxGeometry>
        </mxCell>
        <mxCell id="O44c4YSMCurlD6F-a47z-50" value="]&lt;br&gt;next" style="rounded=0;orthogonalLoop=1;jettySize=auto;html=1;" parent="1" source="O44c4YSMCurlD6F-a47z-8" target="O44c4YSMCurlD6F-a47z-49" edge="1">
          <mxGeometry relative="1" as="geometry" />
        </mxCell>
        <mxCell id="ileGeyp6K2Hb5fsWJhOJ-7" value="&quot;" style="edgeStyle=orthogonalEdgeStyle;rounded=0;orthogonalLoop=1;jettySize=auto;html=1;" edge="1" parent="1" source="O44c4YSMCurlD6F-a47z-8" target="ileGeyp6K2Hb5fsWJhOJ-6">
          <mxGeometry relative="1" as="geometry" />
        </mxCell>
        <mxCell id="O44c4YSMCurlD6F-a47z-8" value="list0" style="ellipse;whiteSpace=wrap;html=1;aspect=fixed;" parent="1" vertex="1">
          <mxGeometry x="-486" y="430" width="80" height="80" as="geometry" />
        </mxCell>
        <mxCell id="O44c4YSMCurlD6F-a47z-9" value="other&lt;br&gt;next&lt;br&gt;dataBuffer" style="edgeStyle=orthogonalEdgeStyle;rounded=0;orthogonalLoop=1;jettySize=auto;html=1;curved=1;" parent="1" source="O44c4YSMCurlD6F-a47z-8" target="O44c4YSMCurlD6F-a47z-8" edge="1">
          <mxGeometry relative="1" as="geometry">
            <Array as="points">
              <mxPoint x="-340" y="500" />
            </Array>
          </mxGeometry>
        </mxCell>
        <mxCell id="O44c4YSMCurlD6F-a47z-14" value="error" style="ellipse;whiteSpace=wrap;html=1;aspect=fixed;" parent="1" vertex="1">
          <mxGeometry x="-780" y="440" width="80" height="80" as="geometry" />
        </mxCell>
        <mxCell id="O44c4YSMCurlD6F-a47z-20" value="({[&lt;div&gt;next&lt;br&gt;startChar&lt;/div&gt;" style="rounded=0;orthogonalLoop=1;jettySize=auto;html=1;exitX=0.5;exitY=1;exitDx=0;exitDy=0;entryX=0.75;entryY=0;entryDx=0;entryDy=0;" parent="1" source="O44c4YSMCurlD6F-a47z-8" target="ileGeyp6K2Hb5fsWJhOJ-9" edge="1">
          <mxGeometry relative="1" as="geometry">
            <mxPoint x="-420" y="580" as="targetPoint" />
          </mxGeometry>
        </mxCell>
        <mxCell id="O44c4YSMCurlD6F-a47z-44" value=",&lt;br&gt;next" style="edgeStyle=orthogonalEdgeStyle;rounded=0;orthogonalLoop=1;jettySize=auto;html=1;curved=1;exitX=0.713;exitY=0.938;exitDx=0;exitDy=0;exitPerimeter=0;" parent="1" target="O44c4YSMCurlD6F-a47z-47" edge="1">
          <mxGeometry relative="1" as="geometry">
            <mxPoint x="10" y="520" as="targetPoint" />
            <Array as="points">
              <mxPoint x="-429" y="520" />
            </Array>
            <mxPoint x="-429" y="505" as="sourcePoint" />
          </mxGeometry>
        </mxCell>
        <mxCell id="O44c4YSMCurlD6F-a47z-46" style="edgeStyle=orthogonalEdgeStyle;rounded=0;orthogonalLoop=1;jettySize=auto;html=1;curved=1;entryX=0.625;entryY=0.975;entryDx=0;entryDy=0;entryPerimeter=0;" parent="1" source="O44c4YSMCurlD6F-a47z-47" edge="1">
          <mxGeometry relative="1" as="geometry">
            <mxPoint x="-436" y="508" as="targetPoint" />
            <Array as="points">
              <mxPoint x="-436" y="540" />
            </Array>
          </mxGeometry>
        </mxCell>
        <mxCell id="O44c4YSMCurlD6F-a47z-47" value="dataList push dataBuffer&lt;br&gt;clear dataBuffer" style="rounded=1;whiteSpace=wrap;html=1;" parent="1" vertex="1">
          <mxGeometry x="-240" y="490" width="210" height="60" as="geometry" />
        </mxCell>
        <mxCell id="O44c4YSMCurlD6F-a47z-51" style="edgeStyle=orthogonalEdgeStyle;rounded=0;orthogonalLoop=1;jettySize=auto;html=1;" parent="1" source="O44c4YSMCurlD6F-a47z-49" target="cuASzoLC5OeUIjtj3deS-1" edge="1">
          <mxGeometry relative="1" as="geometry">
            <Array as="points">
              <mxPoint x="-600" y="100" />
            </Array>
          </mxGeometry>
        </mxCell>
        <mxCell id="O44c4YSMCurlD6F-a47z-49" value="&lt;br&gt;&lt;span style=&quot;color: rgb(0, 0, 0); font-family: Helvetica; font-size: 12px; font-style: normal; font-variant-ligatures: normal; font-variant-caps: normal; font-weight: 400; letter-spacing: normal; orphans: 2; text-align: center; text-indent: 0px; text-transform: none; widows: 2; word-spacing: 0px; -webkit-text-stroke-width: 0px; white-space: normal; background-color: rgb(255, 255, 255); text-decoration-thickness: initial; text-decoration-style: initial; text-decoration-color: initial; display: inline !important; float: none;&quot;&gt;dataList push dataBuffer&lt;/span&gt;&lt;div&gt;expressionList push dataList(evaluated)&lt;br style=&quot;forced-color-adjust: none; color: rgb(0, 0, 0); font-family: Helvetica; font-size: 12px; font-style: normal; font-variant-ligatures: normal; font-variant-caps: normal; font-weight: 400; letter-spacing: normal; orphans: 2; text-align: center; text-indent: 0px; text-transform: none; widows: 2; word-spacing: 0px; -webkit-text-stroke-width: 0px; white-space: normal; background-color: rgb(255, 255, 255); text-decoration-thickness: initial; text-decoration-style: initial; text-decoration-color: initial;&quot;&gt;&lt;span style=&quot;color: rgb(0, 0, 0); font-family: Helvetica; font-size: 12px; font-style: normal; font-variant-ligatures: normal; font-variant-caps: normal; font-weight: 400; letter-spacing: normal; orphans: 2; text-align: center; text-indent: 0px; text-transform: none; widows: 2; word-spacing: 0px; -webkit-text-stroke-width: 0px; white-space: normal; background-color: rgb(255, 255, 255); text-decoration-thickness: initial; text-decoration-style: initial; text-decoration-color: initial; display: inline !important; float: none;&quot;&gt;clear dataBuffer,dataList&lt;/span&gt;&lt;br&gt;&lt;br&gt;&lt;/div&gt;" style="rounded=1;whiteSpace=wrap;html=1;" parent="1" vertex="1">
          <mxGeometry x="-700" y="310" width="220" height="60" as="geometry" />
        </mxCell>
        <mxCell id="W6E2tJbJN2goG2bSEkht-4" value="LF&lt;br&gt;end" style="rounded=0;orthogonalLoop=1;jettySize=auto;html=1;" parent="1" source="W6E2tJbJN2goG2bSEkht-6" target="W6E2tJbJN2goG2bSEkht-7" edge="1">
          <mxGeometry relative="1" as="geometry" />
        </mxCell>
        <mxCell id="W6E2tJbJN2goG2bSEkht-5" value="\&lt;br&gt;next&lt;br&gt;buffer" style="rounded=0;orthogonalLoop=1;jettySize=auto;html=1;exitX=0;exitY=1;exitDx=0;exitDy=0;entryX=0;entryY=0;entryDx=0;entryDy=0;" parent="1" source="W6E2tJbJN2goG2bSEkht-6" target="W6E2tJbJN2goG2bSEkht-9" edge="1">
          <mxGeometry x="0.0045" relative="1" as="geometry">
            <mxPoint as="offset" />
          </mxGeometry>
        </mxCell>
        <mxCell id="W6E2tJbJN2goG2bSEkht-18" value="&quot;&lt;div&gt;next&lt;/div&gt;" style="rounded=0;orthogonalLoop=1;jettySize=auto;html=1;entryX=0.855;entryY=0.855;entryDx=0;entryDy=0;entryPerimeter=0;" parent="1" source="W6E2tJbJN2goG2bSEkht-6" target="W6E2tJbJN2goG2bSEkht-15" edge="1">
          <mxGeometry relative="1" as="geometry" />
        </mxCell>
        <mxCell id="W6E2tJbJN2goG2bSEkht-6" value="str0" style="ellipse;whiteSpace=wrap;html=1;aspect=fixed;" parent="1" vertex="1">
          <mxGeometry x="230" y="-460" width="80" height="80" as="geometry" />
        </mxCell>
        <mxCell id="W6E2tJbJN2goG2bSEkht-17" style="edgeStyle=orthogonalEdgeStyle;rounded=0;orthogonalLoop=1;jettySize=auto;html=1;" parent="1" source="W6E2tJbJN2goG2bSEkht-7" target="W6E2tJbJN2goG2bSEkht-16" edge="1">
          <mxGeometry relative="1" as="geometry" />
        </mxCell>
        <mxCell id="W6E2tJbJN2goG2bSEkht-7" value="error" style="ellipse;whiteSpace=wrap;html=1;aspect=fixed;" parent="1" vertex="1">
          <mxGeometry x="40" y="-460" width="80" height="80" as="geometry" />
        </mxCell>
        <mxCell id="W6E2tJbJN2goG2bSEkht-8" value="other&lt;br&gt;next&lt;br&gt;buffer" style="rounded=0;orthogonalLoop=1;jettySize=auto;html=1;entryX=1;entryY=1;entryDx=0;entryDy=0;exitX=1;exitY=0;exitDx=0;exitDy=0;" parent="1" source="W6E2tJbJN2goG2bSEkht-9" target="W6E2tJbJN2goG2bSEkht-6" edge="1">
          <mxGeometry x="0.0045" relative="1" as="geometry">
            <mxPoint as="offset" />
          </mxGeometry>
        </mxCell>
        <mxCell id="W6E2tJbJN2goG2bSEkht-9" value="str1" style="ellipse;whiteSpace=wrap;html=1;aspect=fixed;" parent="1" vertex="1">
          <mxGeometry x="230" y="-320" width="80" height="80" as="geometry" />
        </mxCell>
        <mxCell id="W6E2tJbJN2goG2bSEkht-10" value="other&lt;br&gt;next&lt;br&gt;buffer" style="edgeStyle=orthogonalEdgeStyle;rounded=0;orthogonalLoop=1;jettySize=auto;html=1;curved=1;" parent="1" source="W6E2tJbJN2goG2bSEkht-6" target="W6E2tJbJN2goG2bSEkht-6" edge="1">
          <mxGeometry relative="1" as="geometry">
            <Array as="points">
              <mxPoint x="360" y="-400" />
            </Array>
          </mxGeometry>
        </mxCell>
        <mxCell id="W6E2tJbJN2goG2bSEkht-11" value="LF&lt;br&gt;end" style="edgeStyle=orthogonalEdgeStyle;rounded=0;orthogonalLoop=1;jettySize=auto;html=1;" parent="1" source="W6E2tJbJN2goG2bSEkht-9" target="W6E2tJbJN2goG2bSEkht-7" edge="1">
          <mxGeometry relative="1" as="geometry" />
        </mxCell>
        <mxCell id="W6E2tJbJN2goG2bSEkht-14" style="edgeStyle=orthogonalEdgeStyle;rounded=0;orthogonalLoop=1;jettySize=auto;html=1;" parent="1" source="W6E2tJbJN2goG2bSEkht-13" target="W6E2tJbJN2goG2bSEkht-6" edge="1">
          <mxGeometry relative="1" as="geometry" />
        </mxCell>
        <mxCell id="W6E2tJbJN2goG2bSEkht-13" value="strEval" style="verticalLabelPosition=middle;verticalAlign=middle;html=1;shape=mxgraph.basic.donut;dx=10;labelPosition=center;align=center;" parent="1" vertex="1">
          <mxGeometry x="240" y="-580" width="60" height="60" as="geometry" />
        </mxCell>
        <mxCell id="W6E2tJbJN2goG2bSEkht-15" value="" style="verticalLabelPosition=bottom;verticalAlign=top;html=1;shape=mxgraph.flowchart.or;" parent="1" vertex="1">
          <mxGeometry x="130" y="-570" width="70" height="70" as="geometry" />
        </mxCell>
        <mxCell id="W6E2tJbJN2goG2bSEkht-16" value="" style="verticalLabelPosition=bottom;verticalAlign=top;html=1;shape=mxgraph.flowchart.or;" parent="1" vertex="1">
          <mxGeometry x="-60" y="-455" width="70" height="70" as="geometry" />
        </mxCell>
        <mxCell id="W6E2tJbJN2goG2bSEkht-28" style="rounded=0;orthogonalLoop=1;jettySize=auto;html=1;exitX=0.25;exitY=1;exitDx=0;exitDy=0;" parent="1" source="W6E2tJbJN2goG2bSEkht-29" target="W6E2tJbJN2goG2bSEkht-33" edge="1">
          <mxGeometry relative="1" as="geometry" />
        </mxCell>
        <mxCell id="W6E2tJbJN2goG2bSEkht-29" value="startWith push startChar" style="rounded=1;whiteSpace=wrap;html=1;" parent="1" vertex="1">
          <mxGeometry x="792" y="-600" width="156" height="50" as="geometry" />
        </mxCell>
        <mxCell id="W6E2tJbJN2goG2bSEkht-31" value="({[&lt;br&gt;next&lt;br&gt;startChar" style="rounded=0;orthogonalLoop=1;jettySize=auto;html=1;exitX=0.5;exitY=0;exitDx=0;exitDy=0;entryX=0.75;entryY=1;entryDx=0;entryDy=0;" parent="1" source="W6E2tJbJN2goG2bSEkht-33" target="W6E2tJbJN2goG2bSEkht-29" edge="1">
          <mxGeometry relative="1" as="geometry">
            <mxPoint x="886.3846153846155" y="-453.07692307692287" as="sourcePoint" />
            <mxPoint x="921" y="-370" as="targetPoint" />
          </mxGeometry>
        </mxCell>
        <mxCell id="W6E2tJbJN2goG2bSEkht-32" value=")}]&lt;br&gt;next&lt;br&gt;endChar" style="rounded=0;orthogonalLoop=1;jettySize=auto;html=1;entryX=0.25;entryY=0;entryDx=0;entryDy=0;exitX=0.5;exitY=1;exitDx=0;exitDy=0;" parent="1" source="W6E2tJbJN2goG2bSEkht-33" target="W6E2tJbJN2goG2bSEkht-47" edge="1">
          <mxGeometry relative="1" as="geometry" />
        </mxCell>
        <mxCell id="W6E2tJbJN2goG2bSEkht-56" value="&quot;" style="edgeStyle=orthogonalEdgeStyle;rounded=0;orthogonalLoop=1;jettySize=auto;html=1;" parent="1" source="W6E2tJbJN2goG2bSEkht-33" target="W6E2tJbJN2goG2bSEkht-55" edge="1">
          <mxGeometry relative="1" as="geometry">
            <Array as="points">
              <mxPoint x="760" y="-440" />
              <mxPoint x="760" y="-440" />
            </Array>
          </mxGeometry>
        </mxCell>
        <mxCell id="W6E2tJbJN2goG2bSEkht-60" value="end" style="edgeStyle=orthogonalEdgeStyle;rounded=0;orthogonalLoop=1;jettySize=auto;html=1;" parent="1" source="W6E2tJbJN2goG2bSEkht-33" target="W6E2tJbJN2goG2bSEkht-59" edge="1">
          <mxGeometry relative="1" as="geometry">
            <Array as="points">
              <mxPoint x="800" y="-420" />
            </Array>
          </mxGeometry>
        </mxCell>
        <mxCell id="W6E2tJbJN2goG2bSEkht-33" value="brac0" style="ellipse;whiteSpace=wrap;html=1;aspect=fixed;" parent="1" vertex="1">
          <mxGeometry x="830" y="-490" width="80" height="80" as="geometry" />
        </mxCell>
        <mxCell id="W6E2tJbJN2goG2bSEkht-44" value="other&lt;br&gt;next&lt;br&gt;buffer" style="edgeStyle=orthogonalEdgeStyle;rounded=0;orthogonalLoop=1;jettySize=auto;html=1;curved=1;" parent="1" source="W6E2tJbJN2goG2bSEkht-33" target="W6E2tJbJN2goG2bSEkht-33" edge="1">
          <mxGeometry relative="1" as="geometry">
            <Array as="points">
              <mxPoint x="960" y="-420" />
            </Array>
          </mxGeometry>
        </mxCell>
        <mxCell id="W6E2tJbJN2goG2bSEkht-45" value="startWith len &amp;gt; 0&lt;div&gt;buffer+=endChar&lt;/div&gt;" style="rounded=0;orthogonalLoop=1;jettySize=auto;html=1;exitX=0.75;exitY=0;exitDx=0;exitDy=0;entryX=0.738;entryY=0.938;entryDx=0;entryDy=0;entryPerimeter=0;" parent="1" source="W6E2tJbJN2goG2bSEkht-47" target="W6E2tJbJN2goG2bSEkht-33" edge="1">
          <mxGeometry x="-0.3605" y="-4" relative="1" as="geometry">
            <mxPoint x="-1" as="offset" />
          </mxGeometry>
        </mxCell>
        <mxCell id="W6E2tJbJN2goG2bSEkht-46" value="startChar != start of endChar" style="rounded=0;orthogonalLoop=1;jettySize=auto;html=1;" parent="1" source="W6E2tJbJN2goG2bSEkht-47" target="W6E2tJbJN2goG2bSEkht-59" edge="1">
          <mxGeometry x="-0.003" relative="1" as="geometry">
            <mxPoint x="880" y="-210" as="targetPoint" />
            <mxPoint as="offset" />
          </mxGeometry>
        </mxCell>
        <mxCell id="W6E2tJbJN2goG2bSEkht-47" value="startChar = startWith pop" style="rounded=1;whiteSpace=wrap;html=1;" parent="1" vertex="1">
          <mxGeometry x="870" y="-330" width="180" height="60" as="geometry" />
        </mxCell>
        <mxCell id="W6E2tJbJN2goG2bSEkht-49" value="startWith len == 0" style="edgeStyle=orthogonalEdgeStyle;rounded=0;orthogonalLoop=1;jettySize=auto;html=1;" parent="1" source="W6E2tJbJN2goG2bSEkht-47" target="W6E2tJbJN2goG2bSEkht-58" edge="1">
          <mxGeometry x="0.2414" relative="1" as="geometry">
            <Array as="points">
              <mxPoint x="1090" y="-300" />
              <mxPoint x="1090" y="-415" />
            </Array>
            <mxPoint as="offset" />
          </mxGeometry>
        </mxCell>
        <mxCell id="W6E2tJbJN2goG2bSEkht-54" style="edgeStyle=orthogonalEdgeStyle;rounded=0;orthogonalLoop=1;jettySize=auto;html=1;" parent="1" source="W6E2tJbJN2goG2bSEkht-53" target="W6E2tJbJN2goG2bSEkht-29" edge="1">
          <mxGeometry relative="1" as="geometry" />
        </mxCell>
        <mxCell id="W6E2tJbJN2goG2bSEkht-53" value="bracEval(startChar)" style="verticalLabelPosition=top;verticalAlign=bottom;html=1;shape=mxgraph.basic.donut;dx=10;labelPosition=center;align=center;" parent="1" vertex="1">
          <mxGeometry x="835" y="-730" width="70" height="70" as="geometry" />
        </mxCell>
        <mxCell id="W6E2tJbJN2goG2bSEkht-57" style="edgeStyle=orthogonalEdgeStyle;rounded=0;orthogonalLoop=1;jettySize=auto;html=1;" parent="1" source="W6E2tJbJN2goG2bSEkht-55" target="W6E2tJbJN2goG2bSEkht-33" edge="1">
          <mxGeometry relative="1" as="geometry">
            <Array as="points">
              <mxPoint x="750" y="-460" />
              <mxPoint x="750" y="-460" />
            </Array>
          </mxGeometry>
        </mxCell>
        <mxCell id="W6E2tJbJN2goG2bSEkht-55" value="buffer+=strEval()" style="rounded=1;whiteSpace=wrap;html=1;" parent="1" vertex="1">
          <mxGeometry x="544" y="-475" width="120" height="50" as="geometry" />
        </mxCell>
        <mxCell id="W6E2tJbJN2goG2bSEkht-58" value="" style="verticalLabelPosition=bottom;verticalAlign=top;html=1;shape=mxgraph.flowchart.or;" parent="1" vertex="1">
          <mxGeometry x="1060" y="-475" width="70" height="70" as="geometry" />
        </mxCell>
        <mxCell id="W6E2tJbJN2goG2bSEkht-59" value="error" style="ellipse;whiteSpace=wrap;html=1;aspect=fixed;" parent="1" vertex="1">
          <mxGeometry x="760" y="-200" width="80" height="80" as="geometry" />
        </mxCell>
        <mxCell id="W6E2tJbJN2goG2bSEkht-64" style="edgeStyle=orthogonalEdgeStyle;rounded=0;orthogonalLoop=1;jettySize=auto;html=1;" parent="1" source="W6E2tJbJN2goG2bSEkht-61" target="cuASzoLC5OeUIjtj3deS-11" edge="1">
          <mxGeometry relative="1" as="geometry">
            <Array as="points">
              <mxPoint x="400" y="730" />
              <mxPoint x="400" y="730" />
            </Array>
          </mxGeometry>
        </mxCell>
        <mxCell id="W6E2tJbJN2goG2bSEkht-61" value="dataBuffer+=bracEval(startChar)" style="rounded=1;whiteSpace=wrap;html=1;" parent="1" vertex="1">
          <mxGeometry x="334" y="790" width="200" height="50" as="geometry" />
        </mxCell>
        <mxCell id="W6E2tJbJN2goG2bSEkht-62" value="dataBuffer+=strEval()" style="rounded=1;whiteSpace=wrap;html=1;" parent="1" vertex="1">
          <mxGeometry x="170" y="680" width="130" height="40" as="geometry" />
        </mxCell>
        <mxCell id="W6E2tJbJN2goG2bSEkht-65" style="edgeStyle=orthogonalEdgeStyle;rounded=0;orthogonalLoop=1;jettySize=auto;html=1;entryX=0.046;entryY=0.714;entryDx=0;entryDy=0;entryPerimeter=0;" parent="1" source="W6E2tJbJN2goG2bSEkht-62" target="cuASzoLC5OeUIjtj3deS-11" edge="1">
          <mxGeometry relative="1" as="geometry">
            <Array as="points">
              <mxPoint x="250" y="637" />
            </Array>
          </mxGeometry>
        </mxCell>
        <mxCell id="ileGeyp6K2Hb5fsWJhOJ-2" style="edgeStyle=orthogonalEdgeStyle;rounded=0;orthogonalLoop=1;jettySize=auto;html=1;" edge="1" parent="1" source="ileGeyp6K2Hb5fsWJhOJ-1" target="voOlMRcv-cYc8bphgMnK-21">
          <mxGeometry relative="1" as="geometry">
            <Array as="points">
              <mxPoint x="1780" y="420" />
            </Array>
          </mxGeometry>
        </mxCell>
        <mxCell id="ileGeyp6K2Hb5fsWJhOJ-1" value="expressionBuffer+=strEval()" style="rounded=1;whiteSpace=wrap;html=1;" vertex="1" parent="1">
          <mxGeometry x="1680" y="530" width="170" height="40" as="geometry" />
        </mxCell>
        <mxCell id="ileGeyp6K2Hb5fsWJhOJ-4" style="edgeStyle=orthogonalEdgeStyle;rounded=0;orthogonalLoop=1;jettySize=auto;html=1;" edge="1" parent="1" source="ileGeyp6K2Hb5fsWJhOJ-3" target="voOlMRcv-cYc8bphgMnK-21">
          <mxGeometry relative="1" as="geometry">
            <Array as="points">
              <mxPoint x="1930" y="470" />
              <mxPoint x="1930" y="470" />
            </Array>
          </mxGeometry>
        </mxCell>
        <mxCell id="ileGeyp6K2Hb5fsWJhOJ-3" value="expressionBuffer+=bracEval(startChar)" style="rounded=1;whiteSpace=wrap;html=1;" vertex="1" parent="1">
          <mxGeometry x="1890" y="540" width="230" height="50" as="geometry" />
        </mxCell>
        <mxCell id="ileGeyp6K2Hb5fsWJhOJ-8" style="edgeStyle=orthogonalEdgeStyle;rounded=0;orthogonalLoop=1;jettySize=auto;html=1;" edge="1" parent="1" source="ileGeyp6K2Hb5fsWJhOJ-6" target="O44c4YSMCurlD6F-a47z-8">
          <mxGeometry relative="1" as="geometry">
            <Array as="points">
              <mxPoint x="-480" y="550" />
            </Array>
          </mxGeometry>
        </mxCell>
        <mxCell id="ileGeyp6K2Hb5fsWJhOJ-6" value="dataBuffer+=strEval()" style="rounded=1;whiteSpace=wrap;html=1;" vertex="1" parent="1">
          <mxGeometry x="-655" y="530" width="130" height="40" as="geometry" />
        </mxCell>
        <mxCell id="ileGeyp6K2Hb5fsWJhOJ-10" style="edgeStyle=orthogonalEdgeStyle;rounded=0;orthogonalLoop=1;jettySize=auto;html=1;" edge="1" parent="1" source="ileGeyp6K2Hb5fsWJhOJ-9" target="O44c4YSMCurlD6F-a47z-8">
          <mxGeometry relative="1" as="geometry">
            <Array as="points">
              <mxPoint x="-460" y="540" />
              <mxPoint x="-460" y="540" />
            </Array>
          </mxGeometry>
        </mxCell>
        <mxCell id="ileGeyp6K2Hb5fsWJhOJ-9" value="dataBuffer+=bracEval(startChar)" style="rounded=1;whiteSpace=wrap;html=1;" vertex="1" parent="1">
          <mxGeometry x="-525" y="610" width="200" height="50" as="geometry" />
        </mxCell>
      </root>
    </mxGraphModel>
  </diagram>
</mxfile>
